<svg viewBox="0 0 144 175" fill="none" xmlns="http://www.w3.org/2000/svg"> //144 175
<g id="Alcohol vector">
<path id="Ellipse 1" d="M110 120C110 150.376 85.3757 175 55 175C24.6243 175 0 150.376 0 120C0 89.6243 47.3 37.5 55 32C61.6 37.5 110 89.6243 110 120Z" fill="#207D90"/>
<path id="Ellipse 4" d="M144 64C144 86.0914 126.091 104 104 104C81.9086 104 64 86.0914 64 64C64 41.9086 98.4 4 104 0C108.8 4 144 41.9086 144 64Z" fill="#207D90"/>
<path id="Ellipse 5" d="M137 64.3077C137 82.3632 122.225 97 104 97C85.7746 97 71 82.3632 71 64.3077C71 46.2522 99.38 15.2692 104 12C107.96 15.2692 137 43.9658 137 64.3077Z" fill="#F2F2F2"/>
<path id="C2H5OH" d="M16.5047 127.144C14.8407 127.144 13.3367 126.776 11.9927 126.04C10.6647 125.304 9.61666 124.288 8.84866 122.992C8.09666 121.68 7.72066 120.216 7.72066 118.6C7.72066 116.984 8.09666 115.528 8.84866 114.232C9.61666 112.92 10.6727 111.896 12.0167 111.16C13.3607 110.424 14.8647 110.056 16.5287 110.056C17.7767 110.056 18.9287 110.264 19.9847 110.68C21.0407 111.096 21.9367 111.704 22.6727 112.504L21.5447 113.632C20.2327 112.304 18.5767 111.64 16.5767 111.64C15.2487 111.64 14.0407 111.944 12.9527 112.552C11.8647 113.16 11.0087 113.992 10.3847 115.048C9.77666 116.104 9.47266 117.288 9.47266 118.6C9.47266 119.912 9.77666 121.096 10.3847 122.152C11.0087 123.208 11.8647 124.04 12.9527 124.648C14.0407 125.256 15.2487 125.56 16.5767 125.56C18.5927 125.56 20.2487 124.888 21.5447 123.544L22.6727 124.672C21.9367 125.472 21.0327 126.088 19.9607 126.52C18.9047 126.936 17.7527 127.144 16.5047 127.144ZM32.7467 128.32V129.4H24.8747V128.56L29.4347 124.528C30.0267 124 30.4267 123.568 30.6347 123.232C30.8587 122.88 30.9707 122.52 30.9707 122.152C30.9707 121.656 30.7467 121.248 30.2987 120.928C29.8667 120.608 29.2027 120.448 28.3067 120.448C27.6827 120.448 27.1147 120.544 26.6027 120.736C26.1067 120.928 25.6987 121.2 25.3787 121.552L24.4907 120.856C25.3227 119.848 26.6187 119.344 28.3787 119.344C29.6267 119.344 30.5867 119.6 31.2587 120.112C31.9307 120.624 32.2667 121.28 32.2667 122.08C32.2667 122.592 32.1307 123.08 31.8587 123.544C31.6027 123.992 31.1147 124.536 30.3947 125.176L26.8427 128.32H32.7467ZM50.8112 110.2V127H49.0592V119.248H38.5472V127H36.7712V110.2H38.5472V117.688H49.0592V110.2H50.8112ZM58.0946 123.664C59.6946 123.664 60.8466 123.92 61.5506 124.432C62.2546 124.928 62.6066 125.624 62.6066 126.52C62.6066 127.4 62.2466 128.112 61.5266 128.656C60.8066 129.216 59.7826 129.496 58.4546 129.496C57.5906 129.496 56.7826 129.376 56.0306 129.136C55.2946 128.912 54.7426 128.608 54.3746 128.224L54.9026 127.264C55.2706 127.6 55.7666 127.872 56.3906 128.08C57.0306 128.288 57.7186 128.392 58.4546 128.392C59.3986 128.392 60.1106 128.224 60.5906 127.888C61.0866 127.552 61.3346 127.096 61.3346 126.52C61.3346 125.928 61.0706 125.488 60.5426 125.2C60.0306 124.896 59.1506 124.744 57.9026 124.744H55.2146L55.7906 119.44H61.9586V120.52H56.8466L56.5106 123.664H58.0946ZM73.9511 127.144C72.2871 127.144 70.7751 126.776 69.4151 126.04C68.0711 125.288 67.0151 124.264 66.2471 122.968C65.4951 121.672 65.1191 120.216 65.1191 118.6C65.1191 116.984 65.4951 115.528 66.2471 114.232C67.0151 112.936 68.0711 111.92 69.4151 111.184C70.7751 110.432 72.2871 110.056 73.9511 110.056C75.6151 110.056 77.1111 110.424 78.4391 111.16C79.7831 111.896 80.8391 112.92 81.6071 114.232C82.3751 115.528 82.7591 116.984 82.7591 118.6C82.7591 120.216 82.3751 121.68 81.6071 122.992C80.8391 124.288 79.7831 125.304 78.4391 126.04C77.1111 126.776 75.6151 127.144 73.9511 127.144ZM73.9511 125.56C75.2791 125.56 76.4791 125.264 77.5511 124.672C78.6231 124.064 79.4631 123.232 80.0711 122.176C80.6791 121.104 80.9831 119.912 80.9831 118.6C80.9831 117.288 80.6791 116.104 80.0711 115.048C79.4631 113.976 78.6231 113.144 77.5511 112.552C76.4791 111.944 75.2791 111.64 73.9511 111.64C72.6231 111.64 71.4151 111.944 70.3271 112.552C69.2551 113.144 68.4071 113.976 67.7831 115.048C67.1751 116.104 66.8711 117.288 66.8711 118.6C66.8711 119.912 67.1751 121.104 67.7831 122.176C68.4071 123.232 69.2551 124.064 70.3271 124.672C71.4151 125.264 72.6231 125.56 73.9511 125.56ZM100.78 110.2V127H99.0279V119.248H88.5159V127H86.7399V110.2H88.5159V117.688H99.0279V110.2H100.78Z" fill="#F2F2F2"/>
</g>
</svg>
