<svg viewBox="0 0 200 200" fill="none" xmlns="http://www.w3.org/2000/svg">
<circle cx="100" cy="100" r="100" fill="white"/>
<path d="M153.869 112.499C155.886 144.778 134.481 173.522 100.779 173.522C67.0774 173.522 44.0001 152.774 44 112.499C47.6614 63.0708 94.6487 54.5277 80.6417 25.2369C80.6417 32.5596 150.207 53.9175 153.869 112.499Z" fill="#D9756C"/>
<path d="M114.786 143.621C114.786 160.471 114.786 174.132 98.9203 174.132C83.0544 174.132 83.0544 160.471 83.0544 143.621C83.0545 126.77 98.9203 111.889 98.9203 111.889C98.9203 111.889 114.786 126.77 114.786 143.621Z" fill="white"/>
<path d="M89.1566 61.2401C89.1566 78.091 82.5331 89.9207 75.7927 89.9207C63.5883 89.9207 62.0626 66.122 65.9681 61.2401C78.1726 45.9845 84.8851 53.9175 75.7927 30.7288C79.393 11.8118 89.1566 44.3892 89.1566 61.2401Z" fill="white"/>
</svg>
