<svg viewBox="0 0 110 143" fill="none" xmlns="http://www.w3.org/2000/svg">
<g id="Humidity vector">
<path id="Ellipse 1" d="M110 88C110 118.376 85.3757 143 55 143C24.6243 143 0 118.376 0 88C0 57.6243 47.3 5.5 55 0C61.6 5.5 110 57.6243 110 88Z" fill="#207D90"/>
<path id="Ellipse 2" d="M101 88C101 112.853 80.629 133 55.5 133C30.371 133 10 112.853 10 88C10 63.1472 49.13 20.5 55.5 16C60.96 20.5 101 60 101 88Z" fill="#F2F2F2"/>
<path id="Ellipse 3" d="M94 89.2711C94 109.876 75.2107 126.579 54.5 126.579C33.7893 126.579 16.9999 109.876 17 89.2711C17 71.5 25.5 71.0419 38 78.0788C100.5 113.263 88.5 63.4999 94 89.2711Z" fill="#207D90"/>
</g>
</svg>
