<?xml version="1.0" standalone="no"?>
<!DOCTYPE svg PUBLIC "-//W3C//DTD SVG 20010904//EN"
 "http://www.w3.org/TR/2001/REC-SVG-20010904/DTD/svg10.dtd">
<svg version="1.0" xmlns="http://www.w3.org/2000/svg"
 width="512.000000pt" height="512.000000pt" viewBox="0 0 512.000000 512.000000"
 preserveAspectRatio="xMidYMid meet">
<metadata>
Created by potrace 1.11, written by Peter Selinger 2001-2013
</metadata>
<g transform="translate(0.000000,512.000000) scale(0.100000,-0.100000)"
fill="#000000" stroke="none">
<path d="M100 3110 l0 -1820 1086 0 1087 0 66 -54 c36 -29 76 -62 87 -72 20
-17 87 -75 141 -120 12 -11 43 -37 70 -59 26 -22 97 -82 158 -134 132 -112
152 -130 415 -351 113 -96 232 -197 265 -225 33 -28 70 -60 83 -70 13 -11 35
-30 48 -42 14 -13 26 -23 27 -23 2 0 2 251 2 558 0 306 1 565 3 575 4 16 45
17 688 17 l684 0 0 1820 0 1820 -2455 0 -2455 0 0 -1820z"/>
</g>
</svg>
